<mxfile host="app.diagrams.net" agent="Mozilla/5.0 (Windows NT 10.0; Win64; x64; rv:129.0) Gecko/20100101 Firefox/129.0" version="24.7.8">
  <diagram id="wG4wrIlzcZ9tnoek_pAj" name="Page-1">
    <mxGraphModel dx="1615" dy="858" grid="1" gridSize="10" guides="1" tooltips="1" connect="1" arrows="1" fold="1" page="1" pageScale="1" pageWidth="850" pageHeight="1100" math="0" shadow="0">
      <root>
        <mxCell id="0" />
        <mxCell id="1" parent="0" />
        <mxCell id="HNkwYjuvvb2egxnESdi1-1" value="Vertical Container" style="swimlane;whiteSpace=wrap;html=1;" vertex="1" parent="1">
          <mxGeometry x="100" y="80" width="320" height="820" as="geometry" />
        </mxCell>
        <mxCell id="HNkwYjuvvb2egxnESdi1-5" style="edgeStyle=orthogonalEdgeStyle;rounded=0;orthogonalLoop=1;jettySize=auto;html=1;" edge="1" parent="HNkwYjuvvb2egxnESdi1-1" source="HNkwYjuvvb2egxnESdi1-3" target="HNkwYjuvvb2egxnESdi1-4">
          <mxGeometry relative="1" as="geometry" />
        </mxCell>
        <mxCell id="HNkwYjuvvb2egxnESdi1-3" value="" style="strokeWidth=2;html=1;shape=mxgraph.flowchart.start_2;whiteSpace=wrap;" vertex="1" parent="HNkwYjuvvb2egxnESdi1-1">
          <mxGeometry x="120" y="40" width="40" height="40" as="geometry" />
        </mxCell>
        <mxCell id="HNkwYjuvvb2egxnESdi1-10" style="edgeStyle=orthogonalEdgeStyle;rounded=0;orthogonalLoop=1;jettySize=auto;html=1;entryX=0.5;entryY=0;entryDx=0;entryDy=0;" edge="1" parent="HNkwYjuvvb2egxnESdi1-1" source="HNkwYjuvvb2egxnESdi1-4" target="HNkwYjuvvb2egxnESdi1-7">
          <mxGeometry relative="1" as="geometry" />
        </mxCell>
        <mxCell id="HNkwYjuvvb2egxnESdi1-4" value="Tampilan menu utama" style="html=1;whiteSpace=wrap;" vertex="1" parent="HNkwYjuvvb2egxnESdi1-1">
          <mxGeometry x="40" y="120" width="200" height="50" as="geometry" />
        </mxCell>
        <mxCell id="HNkwYjuvvb2egxnESdi1-7" value="Halaman hero" style="html=1;whiteSpace=wrap;" vertex="1" parent="HNkwYjuvvb2egxnESdi1-1">
          <mxGeometry x="40" y="220" width="200" height="50" as="geometry" />
        </mxCell>
        <mxCell id="HNkwYjuvvb2egxnESdi1-2" value="Vertical Container" style="swimlane;whiteSpace=wrap;html=1;" vertex="1" parent="1">
          <mxGeometry x="420" y="80" width="320" height="820" as="geometry" />
        </mxCell>
        <mxCell id="HNkwYjuvvb2egxnESdi1-20" style="edgeStyle=orthogonalEdgeStyle;rounded=0;orthogonalLoop=1;jettySize=auto;html=1;entryX=0.5;entryY=0;entryDx=0;entryDy=0;" edge="1" parent="HNkwYjuvvb2egxnESdi1-2" source="HNkwYjuvvb2egxnESdi1-9" target="HNkwYjuvvb2egxnESdi1-15">
          <mxGeometry relative="1" as="geometry" />
        </mxCell>
        <mxCell id="HNkwYjuvvb2egxnESdi1-9" value="Back to top?" style="rhombus;whiteSpace=wrap;html=1;" vertex="1" parent="HNkwYjuvvb2egxnESdi1-2">
          <mxGeometry x="100" y="300" width="110" height="110" as="geometry" />
        </mxCell>
        <mxCell id="HNkwYjuvvb2egxnESdi1-18" style="edgeStyle=orthogonalEdgeStyle;rounded=0;orthogonalLoop=1;jettySize=auto;html=1;entryX=0.5;entryY=0;entryDx=0;entryDy=0;" edge="1" parent="HNkwYjuvvb2egxnESdi1-2" source="HNkwYjuvvb2egxnESdi1-13" target="HNkwYjuvvb2egxnESdi1-9">
          <mxGeometry relative="1" as="geometry" />
        </mxCell>
        <mxCell id="HNkwYjuvvb2egxnESdi1-13" value="Halaman about" style="html=1;whiteSpace=wrap;" vertex="1" parent="HNkwYjuvvb2egxnESdi1-2">
          <mxGeometry x="55" y="220" width="200" height="50" as="geometry" />
        </mxCell>
        <mxCell id="HNkwYjuvvb2egxnESdi1-23" style="edgeStyle=orthogonalEdgeStyle;rounded=0;orthogonalLoop=1;jettySize=auto;html=1;" edge="1" parent="HNkwYjuvvb2egxnESdi1-2" source="HNkwYjuvvb2egxnESdi1-15" target="HNkwYjuvvb2egxnESdi1-22">
          <mxGeometry relative="1" as="geometry" />
        </mxCell>
        <mxCell id="HNkwYjuvvb2egxnESdi1-15" value="Halaman about" style="html=1;whiteSpace=wrap;" vertex="1" parent="HNkwYjuvvb2egxnESdi1-2">
          <mxGeometry x="55" y="490" width="200" height="50" as="geometry" />
        </mxCell>
        <mxCell id="HNkwYjuvvb2egxnESdi1-26" style="edgeStyle=orthogonalEdgeStyle;rounded=0;orthogonalLoop=1;jettySize=auto;html=1;entryX=0.5;entryY=0;entryDx=0;entryDy=0;" edge="1" parent="HNkwYjuvvb2egxnESdi1-2" source="HNkwYjuvvb2egxnESdi1-22" target="HNkwYjuvvb2egxnESdi1-24">
          <mxGeometry relative="1" as="geometry" />
        </mxCell>
        <mxCell id="HNkwYjuvvb2egxnESdi1-22" value="Halaman partners" style="html=1;whiteSpace=wrap;" vertex="1" parent="HNkwYjuvvb2egxnESdi1-2">
          <mxGeometry x="55" y="590" width="200" height="50" as="geometry" />
        </mxCell>
        <mxCell id="HNkwYjuvvb2egxnESdi1-24" value="" style="ellipse;html=1;shape=endState;fillColor=#000000;strokeColor=#ff0000;" vertex="1" parent="HNkwYjuvvb2egxnESdi1-2">
          <mxGeometry x="135" y="680" width="40" height="40" as="geometry" />
        </mxCell>
        <mxCell id="HNkwYjuvvb2egxnESdi1-16" style="edgeStyle=orthogonalEdgeStyle;rounded=0;orthogonalLoop=1;jettySize=auto;html=1;" edge="1" parent="1" source="HNkwYjuvvb2egxnESdi1-7" target="HNkwYjuvvb2egxnESdi1-13">
          <mxGeometry relative="1" as="geometry" />
        </mxCell>
        <mxCell id="HNkwYjuvvb2egxnESdi1-17" style="edgeStyle=orthogonalEdgeStyle;rounded=0;orthogonalLoop=1;jettySize=auto;html=1;entryX=0.5;entryY=1;entryDx=0;entryDy=0;" edge="1" parent="1" source="HNkwYjuvvb2egxnESdi1-9" target="HNkwYjuvvb2egxnESdi1-7">
          <mxGeometry relative="1" as="geometry" />
        </mxCell>
        <mxCell id="HNkwYjuvvb2egxnESdi1-19" value="YES" style="text;html=1;align=center;verticalAlign=middle;resizable=0;points=[];autosize=1;strokeColor=none;fillColor=none;" vertex="1" parent="1">
          <mxGeometry x="255" y="398" width="50" height="30" as="geometry" />
        </mxCell>
        <mxCell id="HNkwYjuvvb2egxnESdi1-21" value="NO" style="text;html=1;align=center;verticalAlign=middle;resizable=0;points=[];autosize=1;strokeColor=none;fillColor=none;" vertex="1" parent="1">
          <mxGeometry x="600" y="498" width="40" height="30" as="geometry" />
        </mxCell>
      </root>
    </mxGraphModel>
  </diagram>
</mxfile>
